<svg width="720" height="720" xmlns="http://www.w3.org/2000/svg" xmlns:xlink="http://www.w3.org/1999/xlink" overflow="hidden"><defs><linearGradient x1="164" y1="5" x2="164" y2="169" gradientUnits="userSpaceOnUse" spreadMethod="reflect" id="fill0"><stop offset="0" stop-color="#F2E8FF"/><stop offset="0.5" stop-color="#EBDCF7"/><stop offset="1" stop-color="#E5D0F0"/></linearGradient><linearGradient x1="555" y1="5" x2="555" y2="169" gradientUnits="userSpaceOnUse" spreadMethod="reflect" id="fill1"><stop offset="0" stop-color="#FFE8E8"/><stop offset="0.5" stop-color="#FFDBDB"/><stop offset="1" stop-color="#FFCECE"/></linearGradient><linearGradient x1="360" y1="283" x2="360" y2="430" gradientUnits="userSpaceOnUse" spreadMethod="reflect" id="fill2"><stop offset="0" stop-color="#E8FFE8"/><stop offset="0.5" stop-color="#DCF7DC"/><stop offset="1" stop-color="#D0F0D0"/></linearGradient><linearGradient x1="164" y1="553" x2="164" y2="717" gradientUnits="userSpaceOnUse" spreadMethod="reflect" id="fill3"><stop offset="0" stop-color="#F0F9F0"/><stop offset="0.5" stop-color="#E8F4E8"/><stop offset="1" stop-color="#E0F0E0"/></linearGradient><linearGradient x1="558.5" y1="553" x2="558.5" y2="717" gradientUnits="userSpaceOnUse" spreadMethod="reflect" id="fill4"><stop offset="0" stop-color="#E8E8FF"/><stop offset="0.5" stop-color="#DCDCF7"/><stop offset="1" stop-color="#D0D0F0"/></linearGradient><linearGradient x1="75.5001" y1="224.5" x2="15.5001" y2="224.5" gradientUnits="userSpaceOnUse" spreadMethod="reflect" id="fill5"><stop offset="0" stop-color="#D09FC8"/><stop offset="0.5" stop-color="#C692BE"/><stop offset="1" stop-color="#C17EB6"/></linearGradient><linearGradient x1="707.5" y1="224.5" x2="647.5" y2="224.5" gradientUnits="userSpaceOnUse" spreadMethod="reflect" id="fill6"><stop offset="0" stop-color="#F5B8A4"/><stop offset="0.5" stop-color="#F2AB96"/><stop offset="1" stop-color="#F59E81"/></linearGradient><linearGradient x1="74.5001" y1="494" x2="13.5001" y2="494" gradientUnits="userSpaceOnUse" spreadMethod="reflect" id="fill7"><stop offset="0" stop-color="#A8D5A0"/><stop offset="0.5" stop-color="#9BCA93"/><stop offset="1" stop-color="#8AC67E"/></linearGradient><linearGradient x1="706.5" y1="494" x2="645.5" y2="494" gradientUnits="userSpaceOnUse" spreadMethod="reflect" id="fill8"><stop offset="0" stop-color="#9CAFBF"/><stop offset="0.5" stop-color="#8FA3B4"/><stop offset="1" stop-color="#7A95AB"/></linearGradient><linearGradient x1="367" y1="601.5" x2="367" y2="666.5" gradientUnits="userSpaceOnUse" spreadMethod="reflect" id="fill9"><stop offset="0" stop-color="#9CCFF5"/><stop offset="0.5" stop-color="#8FC4EB"/><stop offset="1" stop-color="#79BEED"/></linearGradient></defs><g><rect x="0" y="0" width="720" height="720" fill="#FFFFFF"/><path d="M309.051 5C312.889 5 316 7.93701 316 11.56L316 162.44C316 166.063 312.889 169 309.051 169L18.9486 169C15.111 169 12 166.063 12 162.44L12 11.56C12 7.93701 15.111 5 18.9486 5Z" stroke="#9944AA" stroke-width="1.6" stroke-miterlimit="8" fill="url(#fill0)" fill-rule="evenodd"/><path d="M29.502 19.1131 29.502 16.002 21.002 16.002 21.002 30.002 38.002 30.002 38.002 19.1131 29.502 19.1131ZM24.402 28.4465 22.702 28.4465 22.702 26.891 24.402 26.891 24.402 28.4465ZM24.402 25.3353 22.702 25.3353 22.702 23.7798 24.402 23.7798 24.402 25.3353ZM24.402 22.2242 22.702 22.2242 22.702 20.6687 24.402 20.6687 24.402 22.2242ZM24.402 19.1131 22.702 19.1131 22.702 17.5575 24.402 17.5575 24.402 19.1131ZM27.802 28.4465 26.102 28.4465 26.102 26.891 27.802 26.891 27.802 28.4465ZM27.802 25.3353 26.102 25.3353 26.102 23.7798 27.802 23.7798 27.802 25.3353ZM27.802 22.2242 26.102 22.2242 26.102 20.6687 27.802 20.6687 27.802 22.2242ZM27.802 19.1131 26.102 19.1131 26.102 17.5575 27.802 17.5575 27.802 19.1131ZM36.302 28.4465 29.502 28.4465 29.502 26.891 31.202 26.891 31.202 25.3353 29.502 25.3353 29.502 23.7798 31.202 23.7798 31.202 22.2242 29.502 22.2242 29.502 20.6687 36.302 20.6687 36.302 28.4465ZM34.602 22.2242 32.902 22.2242 32.902 23.7798 34.602 23.7798 34.602 22.2242ZM34.602 25.3353 32.902 25.3353 32.902 26.891 34.602 26.891 34.602 25.3353Z" fill="#9944AA" fill-rule="evenodd"/><text fill="#333333" font-family="MS Gothic,MS Gothic_MSFontService,sans-serif" font-weight="700" font-size="16" transform="translate(46.0798 33)">建設業界の変化</text><path d="M19.5001 36.5001 309.5 36.5001" stroke="#9944AA" stroke-width="0.8" stroke-miterlimit="8" stroke-opacity="0.301961" fill="none" fill-rule="evenodd"/><text fill="#444444" font-family="Arial,Arial_MSFontService,sans-serif" font-weight="400" font-size="14" transform="translate(33.0396 57)">•</text><text fill="#444444" font-family="MS Gothic,MS Gothic_MSFontService,sans-serif" font-weight="400" font-size="14" transform="translate(41.7062 57)">施工スキルだけでは不十分</text><text fill="#444444" font-family="Arial,Arial_MSFontService,sans-serif" font-weight="400" font-size="14" transform="translate(33.0396 78)">•</text><text fill="#444444" font-family="MS Gothic,MS Gothic_MSFontService,sans-serif" font-weight="400" font-size="14" transform="translate(41.7062 78)">事務的業務の必要性増加</text><text fill="#444444" font-family="Arial,Arial_MSFontService,sans-serif" font-weight="400" font-size="14" transform="translate(33.0396 98)">•</text><text fill="#444444" font-family="MS Gothic,MS Gothic_MSFontService,sans-serif" font-weight="400" font-size="14" transform="translate(41.7062 98)">施工計画作成の厳格化</text><path d="M701.006 5C704.869 5 708 7.93701 708 11.56L708 162.44C708 166.063 704.869 169 701.006 169L408.994 169C405.131 169 402 166.063 402 162.44L402 11.56C402 7.93701 405.131 5 408.994 5Z" stroke="#CC4444" stroke-width="1.6" stroke-miterlimit="8" fill="url(#fill1)" fill-rule="evenodd"/><path d="M419.561 15.002 410.061 30.002 429.061 30.002 419.561 15.002ZM419.561 18.16 426.038 28.4231 413.084 28.4231 419.561 18.16Z" fill="#CC4444" fill-rule="evenodd"/><path d="M419.071 21.0022 419.071 24.5023 421.071 24.5023 421.071 21.0022 419.071 21.0022ZM419.071 26.2523 419.071 28.0022 421.071 28.0022 421.071 26.2523 419.071 26.2523Z" fill="#CC4444" fill-rule="evenodd"/><text fill="#333333" font-family="MS Gothic,MS Gothic_MSFontService,sans-serif" font-weight="700" font-size="16" transform="translate(436.409 33)">工事会社が抱えている課題</text><path d="M409.5 36.5001 701.5 36.5001" stroke="#CC4444" stroke-width="0.8" stroke-miterlimit="8" stroke-opacity="0.301961" fill="none" fill-rule="evenodd"/><text fill="#444444" font-family="Arial,Arial_MSFontService,sans-serif" font-weight="400" font-size="14" transform="translate(414.566 57)">•</text><text fill="#444444" font-family="MS Gothic,MS Gothic_MSFontService,sans-serif" font-weight="400" font-size="14" transform="translate(423.233 57)">発注者・元請ごとに異なる施工計画書の仕様</text><text fill="#444444" font-family="Arial,Arial_MSFontService,sans-serif" font-weight="400" font-size="14" transform="translate(414.566 78)">•</text><text fill="#444444" font-family="MS Gothic,MS Gothic_MSFontService,sans-serif" font-weight="400" font-size="14" transform="translate(423.233 78)">専属社員雇用のコストがかかる</text><text fill="#444444" font-family="Arial,Arial_MSFontService,sans-serif" font-weight="400" font-size="14" transform="translate(414.566 98)">•</text><text fill="#444444" font-family="MS Gothic,MS Gothic_MSFontService,sans-serif" font-weight="400" font-size="14" transform="translate(423.233 98)">行政への申請・届出書類作成の煩雑さ</text><text fill="#444444" font-family="Arial,Arial_MSFontService,sans-serif" font-weight="400" font-size="14" transform="translate(414.566 119)">•</text><text fill="#444444" font-family="MS Gothic,MS Gothic_MSFontService,sans-serif" font-weight="400" font-size="14" transform="translate(423.233 119)">現場業務と事務作業の両立困難</text><text fill="#444444" font-family="Arial,Arial_MSFontService,sans-serif" font-weight="400" font-size="14" transform="translate(414.566 139)">•</text><text fill="#444444" font-family="MS Gothic,MS Gothic_MSFontService,sans-serif" font-weight="400" font-size="14" transform="translate(423.233 139)">書類作業への苦手意識</text><text fill="#444444" font-family="Arial,Arial_MSFontService,sans-serif" font-weight="400" font-size="14" transform="translate(414.566 160)">•</text><text fill="#444444" font-family="MS Gothic,MS Gothic_MSFontService,sans-serif" font-weight="400" font-size="14" transform="translate(423.233 160)">施工計画書遅延による着工リスク</text><path d="M696.864 283C703.014 283 708 285.925 708 289.533L708 423.467C708 427.075 703.014 430 696.864 430L23.136 430C16.9858 430 12 427.075 12 423.467L12 289.533C12 285.925 16.9858 283 23.136 283Z" stroke="#44AA44" stroke-width="1.6" stroke-miterlimit="8" fill="url(#fill2)" fill-rule="evenodd"/><text fill="#333333" font-family="Yu Gothic,Yu Gothic_MSFontService,sans-serif" font-weight="700" font-size="20" transform="translate(130.138 312)">ケイエスビルド</text><text fill="#333333" font-family="MS Gothic,MS Gothic_MSFontService,sans-serif" font-weight="700" font-size="20" transform="translate(270.138 312)">のアウトソーシングソリューション</text><path d="M33.5001 320.5 687.5 320.5" stroke="#44AA44" stroke-width="0.8" stroke-miterlimit="8" stroke-opacity="0.301961" fill="none" fill-rule="evenodd"/><path d="M228.576 328.543C232.422 328.543 235.54 330.383 235.54 332.654L235.54 398.432C235.54 400.702 232.422 402.543 228.576 402.543L47.5046 402.543C43.6583 402.543 40.5403 400.702 40.5403 398.432L40.5403 332.654C40.5403 330.383 43.6583 328.543 47.5046 328.543Z" stroke="#44AA44" stroke-width="0.8" stroke-miterlimit="8" fill="#FFFFFF" fill-rule="evenodd"/><text fill="#44AA44" font-family="MS Gothic,MS Gothic_MSFontService,sans-serif" font-weight="700" font-size="14" transform="translate(102.07 357)">専門的知識</text><text fill="#444444" font-family="MS Gothic,MS Gothic_MSFontService,sans-serif" font-weight="400" font-size="12" transform="translate(89.0697 374)">各発注者・元請の</text><text fill="#444444" font-family="MS Gothic,MS Gothic_MSFontService,sans-serif" font-weight="400" font-size="12" transform="translate(95.0691 388)">要求仕様に精通</text><path d="M451.605 328.543C455.451 328.543 458.57 330.383 458.57 332.654L458.57 398.432C458.57 400.702 455.451 402.543 451.605 402.543L270.534 402.543C266.688 402.543 263.57 400.702 263.57 398.432L263.57 332.654C263.57 330.383 266.688 328.543 270.534 328.543Z" stroke="#44AA44" stroke-width="0.8" stroke-miterlimit="8" fill="#FFFFFF" fill-rule="evenodd"/><text fill="#44AA44" font-family="MS Gothic,MS Gothic_MSFontService,sans-serif" font-weight="700" font-size="14" transform="translate(324.79 357)">効率的対応</text><text fill="#444444" font-family="MS Gothic,MS Gothic_MSFontService,sans-serif" font-weight="400" font-size="12" transform="translate(324.668 374)">必要な時だけ</text><text fill="#444444" font-family="MS Gothic,MS Gothic_MSFontService,sans-serif" font-weight="400" font-size="12" transform="translate(324.668 388)">コスト最適化</text><path d="M673.634 328.543C677.481 328.543 680.599 330.383 680.599 332.654L680.599 398.432C680.599 400.702 677.481 402.543 673.634 402.543L492.563 402.543C488.717 402.543 485.599 400.702 485.599 398.432L485.599 332.654C485.599 330.383 488.717 328.543 492.563 328.543Z" stroke="#44AA44" stroke-width="0.8" stroke-miterlimit="8" fill="#FFFFFF" fill-rule="evenodd"/><text fill="#44AA44" font-family="MS Gothic,MS Gothic_MSFontService,sans-serif" font-weight="700" font-size="14" transform="translate(533.858 357)">迅速なサポート</text><text fill="#444444" font-family="MS Gothic,MS Gothic_MSFontService,sans-serif" font-weight="400" font-size="12" transform="translate(534.858 374)">現場に集中できる</text><text fill="#444444" font-family="MS Gothic,MS Gothic_MSFontService,sans-serif" font-weight="400" font-size="12" transform="translate(534.858 388)">時間的余裕の創出</text><path d="M309.051 553C312.889 553 316 555.937 316 559.56L316 710.44C316 714.063 312.889 717 309.051 717L18.9486 717C15.111 717 12 714.063 12 710.44L12 559.56C12 555.937 15.111 553 18.9486 553Z" stroke="#44AA44" stroke-width="1.6" stroke-miterlimit="8" fill="url(#fill3)" fill-rule="evenodd"/><path d="M35.5475 573.197 35.5475 566.697C35.5475 565.803 34.7702 565.072 33.8202 565.072L21.7293 565.072C20.7793 565.072 20.002 565.803 20.002 566.697L20.002 573.197C20.002 574.091 20.7793 574.822 21.7293 574.822L33.8202 574.822C34.7702 574.822 35.5475 574.091 35.5475 573.197ZM27.7748 572.385C26.3412 572.385 25.1839 571.296 25.1839 569.947 25.1839 568.598 26.3412 567.51 27.7748 567.51 29.2084 567.51 30.3657 568.598 30.3657 569.947 30.3657 571.296 29.2084 572.385 27.7748 572.385ZM39.002 567.51 39.002 576.447C39.002 577.341 38.2248 578.072 37.2748 578.072L22.5929 578.072 22.5929 576.447 37.2748 576.447 37.2748 567.51 39.002 567.51Z" fill="#44AA44" fill-rule="evenodd"/><text fill="#333333" font-family="MS Gothic,MS Gothic_MSFontService,sans-serif" font-weight="700" font-size="16" transform="translate(50.4261 582)">提供サービス</text><path d="M19.5001 584.5 309.5 584.5" stroke="#44AA44" stroke-width="0.8" stroke-miterlimit="8" stroke-opacity="0.301961" fill="none" fill-rule="evenodd"/><text fill="#444444" font-family="Arial,Arial_MSFontService,sans-serif" font-weight="400" font-size="14" transform="translate(33.0392 606)">•</text><text fill="#444444" font-family="MS Gothic,MS Gothic_MSFontService,sans-serif" font-weight="400" font-size="14" transform="translate(41.7058 606)">発注者別施工計画書作成</text><text fill="#444444" font-family="Arial,Arial_MSFontService,sans-serif" font-weight="400" font-size="14" transform="translate(33.0392 626)">•</text><text fill="#444444" font-family="MS Gothic,MS Gothic_MSFontService,sans-serif" font-weight="400" font-size="14" transform="translate(41.7058 626)">安全計画・品質計画作成</text><text fill="#444444" font-family="Arial,Arial_MSFontService,sans-serif" font-weight="400" font-size="14" transform="translate(33.0392 646)">•</text><text fill="#444444" font-family="MS Gothic,MS Gothic_MSFontService,sans-serif" font-weight="400" font-size="14" transform="translate(41.7058 646)">行政申請書類の準備</text><path d="M701.166 553C704.94 553 708 555.937 708 559.56L708 710.44C708 714.063 704.94 717 701.166 717L415.834 717C412.06 717 409 714.063 409 710.44L409 559.56C409 555.937 412.06 553 415.834 553Z" stroke="#4444CC" stroke-width="1.6" stroke-miterlimit="8" fill="url(#fill4)" fill-rule="evenodd"/><path d="M429.96 566.074 431.907 567.982 427.758 572.049 424.358 568.715 418.06 574.899 419.258 576.074 424.358 571.074 427.758 574.407 433.113 569.165 435.06 571.074 435.06 566.074 429.96 566.074Z" fill="#4444CC" fill-rule="evenodd"/><text fill="#333333" font-family="MS Gothic,MS Gothic_MSFontService,sans-serif" font-weight="700" font-size="16" transform="translate(442.839 582)">期待される成果</text><path d="M416.5 584.5 701.5 584.5" stroke="#4444CC" stroke-width="0.8" stroke-miterlimit="8" stroke-opacity="0.301961" fill="none" fill-rule="evenodd"/><text fill="#444444" font-family="Arial,Arial_MSFontService,sans-serif" font-weight="400" font-size="14" transform="translate(425.765 606)">•</text><text fill="#444444" font-family="MS Gothic,MS Gothic_MSFontService,sans-serif" font-weight="400" font-size="14" transform="translate(434.431 606)">元請・一次請けへのステップアップ</text><text fill="#444444" font-family="Arial,Arial_MSFontService,sans-serif" font-weight="400" font-size="14" transform="translate(425.765 626)">•</text><text fill="#444444" font-family="MS Gothic,MS Gothic_MSFontService,sans-serif" font-weight="400" font-size="14" transform="translate(434.431 626)">案件獲得率の大幅向上</text><text fill="#444444" font-family="Arial,Arial_MSFontService,sans-serif" font-weight="400" font-size="14" transform="translate(425.765 646)">•</text><text fill="#444444" font-family="MS Gothic,MS Gothic_MSFontService,sans-serif" font-weight="400" font-size="14" transform="translate(434.431 646)">現場生産性の向上と残業削減</text><text fill="#555555" font-family="MS Gothic,MS Gothic_MSFontService,sans-serif" font-weight="400" font-size="21" transform="translate(86.128 224)">業界変化に対応</text><text fill="#555555" font-family="MS Gothic,MS Gothic_MSFontService,sans-serif" font-weight="400" font-size="21" transform="translate(516.07 224)">課題解決</text><text fill="#555555" font-family="MS Gothic,MS Gothic_MSFontService,sans-serif" font-weight="400" font-size="21" transform="translate(86.3624 496)">サービス提供</text><text fill="#555555" font-family="MS Gothic,MS Gothic_MSFontService,sans-serif" font-weight="400" font-size="21" transform="translate(512.575 496)">成果実現</text><text fill="#555555" font-family="MS Gothic,MS Gothic_MSFontService,sans-serif" font-weight="400" font-size="16" transform="translate(331.914 574)">導入効果</text><path d="M60.5001 183.5 60.5001 235.5 75.5001 235.5 45.5 265.5 15.5001 235.5 30.5 235.5 30.5 183.5Z" stroke="#A02B93" stroke-width="1.33333" stroke-miterlimit="8" fill="url(#fill5)" fill-rule="evenodd"/><path d="M692.5 183.5 692.5 235.5 707.5 235.5 677.5 265.5 647.5 235.5 662.5 235.5 662.5 183.5Z" stroke="#E97132" stroke-width="1.33333" stroke-miterlimit="8" fill="url(#fill6)" fill-rule="evenodd"/><path d="M59.25 453.5 59.25 504 74.5001 504 44.0001 534.5 13.5001 504 28.75 504 28.75 453.5Z" stroke="#4EA72E" stroke-width="1.33333" stroke-miterlimit="8" fill="url(#fill7)" fill-rule="evenodd"/><path d="M691.25 453.5 691.25 504 706.5 504 676 534.5 645.5 504 660.75 504 660.75 453.5Z" stroke="#156082" stroke-width="1.33333" stroke-miterlimit="8" fill="url(#fill8)" fill-rule="evenodd"/><path d="M331.5 617.75 370 617.75 370 601.5 402.5 634 370 666.5 370 650.25 331.5 650.25Z" stroke="#0F9ED5" stroke-width="1.33333" stroke-miterlimit="8" fill="url(#fill9)" fill-rule="evenodd"/></g></svg>