<?xml version="1.0" encoding="UTF-8" standalone="no"?>
<svg
   xmlns:dc="http://purl.org/dc/elements/1.1/"
   xmlns:cc="http://creativecommons.org/ns#"
   xmlns:rdf="http://www.w3.org/1999/02/22-rdf-syntax-ns#"
   xmlns:svg="http://www.w3.org/2000/svg"
   xmlns="http://www.w3.org/2000/svg"
   viewBox="0 0 1302.1813 466.06534"
   height="466.06534"
   width="1302.1813"
   xml:space="preserve"
   id="svg2"
   version="1.1"><metadata
     id="metadata8"><rdf:RDF><cc:Work
         rdf:about=""><dc:format>image/svg+xml</dc:format><dc:type
           rdf:resource="http://purl.org/dc/dcmitype/StillImage" /></cc:Work></rdf:RDF></metadata><defs
     id="defs6"><clipPath
       id="clipPath18"
       clipPathUnits="userSpaceOnUse"><path
         id="path16"
         d="M 0,349.549 H 976.636 V 0 H 0 Z" /></clipPath></defs><g
     transform="matrix(1.3333333,0,0,-1.3333333,0,466.06533)"
     id="g10"><g
       id="g12"><g
         clip-path="url(#clipPath18)"
         id="g14"><g
           transform="translate(0.75,349.5488)"
           id="g20"><path
             id="path22"
             style="fill:#ffffff;fill-opacity:1;fill-rule:evenodd;stroke:none"
             d="M 0,0 H 975.886 V -349.549 H -0.75 V -2.25 C -0.814,-1.186 -0.874,-0.126 0,0" /></g><g
           transform="translate(297.7915,149.2705)"
           id="g24"><path
             id="path26"
             style="fill:#ffffff;fill-opacity:1;fill-rule:evenodd;stroke:none"
             d="m 0,0 c 0,55.726 7.224,115.892 -16.502,144.021 -23.792,28.206 -63.688,30.754 -112.516,30.754 -47.999,0 -101.959,0.611 -147.021,-0.751 -5.211,-9.169 -3,-20.89 -3,-31.503 0,-81.455 -1.233,-167.537 1.5,-245.285 88.963,-2.496 187.855,-2.491 276.039,0 C 1.229,-70.766 0,-35.303 0,0" /></g><path
           id="path28"
           style="fill:#ffffff;fill-opacity:1;fill-rule:evenodd;stroke:none"
           d="m 763.607,214.53 h 13.502 v 12.002 h -13.502 z" /><g
           transform="translate(802.6118,226.5317)"
           id="g30"><path
             id="path32"
             style="fill:#ffffff;fill-opacity:1;fill-rule:evenodd;stroke:none"
             d="m 0,0 v -2.25 c 4.453,-31.302 -14.688,-86.199 25.504,-81.762 v 13.502 c -4.795,-0.044 -10.122,-0.62 -11.252,3.001 -1.742,21.01 -0.256,45.25 -0.75,67.509 z" /></g><g
           transform="translate(901.6255,226.5317)"
           id="g34"><path
             id="path36"
             style="fill:#ffffff;fill-opacity:1;fill-rule:evenodd;stroke:none"
             d="m 0,0 c -3.131,-21.122 2.589,-51.095 -3,-69.76 -9.942,-0.561 -27.679,-2.771 -35.255,1.501 -0.887,7.834 -1.994,21.852 0.75,28.504 7.434,3.067 20.196,0.806 30.004,1.5 v 13.502 c -14.881,-1.402 -25.366,2.631 -35.255,-2.251 -13.856,-6.842 -13.689,-42.568 -4.5,-51.757 10.439,-10.439 49.948,-7.467 57.008,2.25 9.858,13.571 -1.209,58.048 3,76.511 z" /></g><g
           transform="translate(320.2949,219.0308)"
           id="g38"><path
             id="path40"
             style="fill:#ffffff;fill-opacity:1;fill-rule:evenodd;stroke:none"
             d="M 0,0 V -76.511 H 13.501 V 2.25 C 9.41,1.092 0.476,4.774 0,0" /></g><g
           transform="translate(383.3037,221.2808)"
           id="g42"><path
             id="path44"
             style="fill:#ffffff;fill-opacity:1;fill-rule:evenodd;stroke:none"
             d="m 0,0 c -12.064,-10.439 -21.816,-23.19 -34.505,-33.004 h -8.251 v -13.502 h 9.751 c 5.465,-4.349 10.383,-10.383 16.503,-16.502 8.861,-8.863 14.567,-19.277 33.754,-15.753 -9.702,13.303 -27.478,25.029 -38.255,39.756 8.535,10.057 20.764,20.013 30.004,29.254 3.17,3.17 8.271,7.448 7.501,9.751 z" /></g><g
           transform="translate(421.5586,207.0288)"
           id="g46"><path
             id="path48"
             style="fill:#ffffff;fill-opacity:1;fill-rule:evenodd;stroke:none"
             d="M 0,0 C -11.245,-34.656 29.42,-33.498 60.009,-33.004 81.418,-61.631 15.386,-47.738 -0.75,-51.007 v -13.502 c 25.74,3.467 46.795,-5.334 64.509,1.501 18.773,7.243 18.045,40.265 -3.75,44.256 -13.098,2.398 -40.001,-4.933 -45.757,3.75 C 3.329,1.476 28.388,0.75 40.506,0.75 H 70.51 C 70.124,5.115 71.354,11.095 69.76,14.252 42.292,12.511 6.826,21.035 0,0" /></g><g
           transform="translate(640.5894,214.5298)"
           id="g50"><path
             id="path52"
             style="fill:#ffffff;fill-opacity:1;fill-rule:evenodd;stroke:none"
             d="m 0,0 c -7.656,10.937 -50.313,6.077 -66.009,6.001 -6.158,-8.148 -3.751,-23.763 -3.751,-37.505 0,-14.174 -1.507,-29.173 2.25,-39.005 9.453,-2.593 21.63,-1.501 33.755,-1.501 11.768,0 25.583,-2.174 33.755,1.501 15.453,6.948 9.421,34.246 -2.25,41.255 C 3.521,-19.748 4.858,-6.939 0,0" /></g><g
           transform="translate(672.0942,201.7783)"
           id="g54"><path
             id="path56"
             style="fill:#ffffff;fill-opacity:1;fill-rule:evenodd;stroke:none"
             d="m 0,0 v -2.25 c 1.227,-20.385 -3.957,-38.998 6.75,-49.508 11.1,-10.892 36.123,-8.096 56.259,-6 5.018,14.984 0.919,39.087 2.25,57.758 H 51.757 c -0.499,-15.003 0.999,-32.003 -0.75,-45.757 -11.745,1.651 -22.925,-2.564 -30.755,0.75 C 7.154,-39.461 16.243,-16.389 13.501,0 Z" /></g><path
           id="path58"
           style="fill:#ffffff;fill-opacity:1;fill-rule:evenodd;stroke:none"
           d="m 763.607,142.52 h 13.502 v 59.259 h -13.502 z" /><g
           transform="translate(928.6294,123.7676)"
           id="g60"><path
             id="path62"
             style="fill:#ffffff;fill-opacity:1;fill-rule:evenodd;stroke:none"
             d="m 0,0 c 3.189,-1.313 8.442,-0.559 12.752,-0.75 -0.498,-11.004 0.998,-24.001 -0.75,-33.755 H -1.5 v -12.002 c -2.525,0.475 -6.968,-0.967 -8.251,0.75 v 11.252 h -7.501 v -19.503 c -2.772,0.479 -7.473,-0.971 -9.002,0.75 v 18.753 h -7.501 v -12.002 c -2.756,0.244 -6.641,-0.639 -8.251,0.75 v 11.252 h -7.501 v -19.503 c -2.525,0.475 -6.967,-0.967 -8.251,0.75 v 18.753 h -7.501 v -12.002 c -2.525,0.475 -6.968,-0.967 -8.251,0.75 v 11.252 h -7.501 v -19.503 c -2.525,0.475 -6.968,-0.967 -8.252,0.75 v 18.753 h -8.251 v -12.002 c -2.756,0.244 -6.64,-0.639 -8.251,0.75 v 11.252 h -7.501 v -19.503 c -2.525,0.475 -6.966,-0.967 -8.251,0.75 v 18.753 h -7.501 v -12.002 c -2.525,0.475 -6.967,-0.967 -8.251,0.75 v 11.252 h -7.501 v -19.503 c -2.525,0.475 -6.967,-0.967 -8.251,0.75 v 18.753 h -7.501 c -0.361,-3.89 0.807,-9.309 -0.75,-12.002 -2.757,0.244 -6.641,-0.639 -8.251,0.75 v 11.252 h -6.751 v -19.503 c -2.772,0.479 -7.473,-0.971 -9.001,0.75 v 18.753 h -7.501 v -12.002 c -2.526,0.475 -6.968,-0.967 -8.252,0.75 v 11.252 h -7.501 v -19.503 c -2.526,0.475 -6.967,-0.967 -8.251,0.75 v 18.753 h -7.501 c -0.361,-3.89 0.807,-9.309 -0.75,-12.002 -2.281,0.471 -6.461,-0.96 -7.501,0.75 v 11.252 h -7.501 v -19.503 c -2.526,0.475 -6.968,-0.967 -8.251,0.75 v 18.753 h -7.501 v -12.002 c -2.526,0.475 -6.968,-0.967 -8.252,0.75 v 11.252 h -7.501 v -19.503 c -2.772,0.479 -7.472,-0.971 -9.001,0.75 v 18.753 h -7.501 v -12.002 c -2.525,0.475 -6.968,-0.967 -8.251,0.75 v 11.252 h -7.501 v -19.503 c -2.525,0.475 -6.968,-0.967 -8.251,0.75 v 18.753 h -7.501 v -12.002 c -2.526,0.475 -6.968,-0.967 -8.252,0.75 v 11.252 h -7.501 v -19.503 c -2.771,0.479 -7.472,-0.971 -9.001,0.75 v 18.753 h -7.501 v -12.002 c -2.28,0.471 -6.461,-0.96 -7.501,0.75 v 11.252 h -8.251 v -19.503 c -2.525,0.475 -6.968,-0.967 -8.252,0.75 v 18.753 h -6.75 c -0.361,-3.89 0.808,-9.309 -0.751,-12.002 -2.756,0.244 -6.64,-0.639 -8.251,0.75 v 11.252 h -7.501 v -19.503 c -2.525,0.475 -6.966,-0.967 -8.251,0.75 v 18.753 h -7.501 v -12.002 c -2.525,0.475 -6.967,-0.967 -8.251,0.75 v 11.252 h -7.501 v -19.503 c -2.772,0.479 -7.472,-0.971 -9.002,0.75 v 18.753 h -6.75 c -0.361,-3.89 0.808,-9.309 -0.75,-12.002 -2.757,0.244 -6.641,-0.639 -8.251,0.75 v 11.252 h -7.501 v -19.503 c -2.526,0.475 -6.968,-0.967 -8.251,0.75 v 18.753 h -7.501 v -12.002 c -2.526,0.475 -6.968,-0.967 -8.252,0.75 v 11.252 h -7.501 v -19.503 c -2.525,0.475 -6.967,-0.967 -8.251,0.75 v 18.753 h -7.501 c -0.361,-3.89 0.808,-9.309 -0.75,-12.002 -2.757,0.244 -6.641,-0.639 -8.251,0.75 v 11.252 h -7.501 v -19.503 c -2.526,0.475 -6.968,-0.967 -8.251,0.75 v 18.753 h -7.502 v -12.002 c -2.525,0.475 -6.967,-0.967 -8.251,0.75 v 11.252 h -7.501 v -19.503 c -2.525,0.475 -6.967,-0.967 -8.251,0.75 v 18.753 h -7.501 c -0.361,-3.89 0.808,-9.309 -0.75,-12.002 -2.756,0.244 -6.641,-0.639 -8.251,0.75 v 11.252 h -7.501 v -19.503 c -2.525,0.475 -6.967,-0.967 -8.251,0.75 v 18.753 h -7.501 v -12.002 c -2.526,0.475 -6.968,-0.967 -8.251,0.75 v 11.252 h -15.753 v -41.256 c 217.557,0.995 438.676,-1.994 653.342,1.5 2.65,11.917 1.5,27.573 1.5,42.756 0,15.021 2.201,31.589 -3.001,42.006 C 10.751,11.185 -8.806,12.07 0,0" /></g><g
           transform="translate(90.7627,228.7822)"
           id="g64"><path
             id="path66"
             style="fill:#005e9e;fill-opacity:1;fill-rule:evenodd;stroke:none"
             d="m 0,0 c -4.03,-6.207 -11.335,-18.835 -12.752,-37.505 -4.612,-60.784 55.761,-104.724 111.766,-81.762 37.835,15.512 59.45,60.695 45.006,102.015 C 139.131,-3.267 131.438,6.132 123.767,13.501 108.828,27.854 87.149,38.553 58.508,35.255 30.716,32.054 10.966,16.887 0,0 M -41.256,36.005 C -32.918,14.961 4.615,22.938 -0.75,50.257 -2.612,59.738 -12.497,65.897 -22.503,65.259 -35.833,64.408 -47.88,52.725 -41.256,36.005 m 246.785,-218.28 c -88.184,-2.492 -187.076,-2.496 -276.039,0 -2.733,77.748 -1.5,163.829 -1.5,245.284 0,10.613 -2.212,22.335 3,31.504 45.062,1.361 99.022,0.75 147.021,0.75 48.827,0 88.723,-2.548 112.515,-30.754 23.727,-28.129 16.503,-88.295 16.503,-144.021 0,-35.302 1.229,-70.765 -1.5,-102.763" /></g><g
           transform="translate(69.0098,264.7871)"
           id="g68"><path
             id="path70"
             style="fill:#ffffff;fill-opacity:1;fill-rule:evenodd;stroke:none"
             d="M 0,0 C 11.066,-0.183 12.125,20.595 -2.25,16.502 -11.648,13.826 -9.042,0.149 0,0 M -0.75,29.254 C 9.256,29.893 19.141,23.733 21.003,14.252 26.368,-13.066 -11.165,-21.043 -19.503,0 -26.127,16.72 -14.08,28.403 -0.75,29.254" /></g><g
           transform="translate(66.7593,281.2891)"
           id="g72"><path
             id="path74"
             style="fill:#005e9e;fill-opacity:1;fill-rule:evenodd;stroke:none"
             d="M 0,0 C 14.376,4.093 13.317,-16.685 2.25,-16.502 -6.792,-16.353 -9.398,-2.676 0,0" /></g><g
           transform="translate(109.5151,219.7808)"
           id="g76"><path
             id="path78"
             style="fill:#ffffff;fill-opacity:1;fill-rule:evenodd;stroke:none"
             d="m 0,0 c -3.799,-5.39 -9.39,-10.419 -11.251,-27.004 -4.186,-37.279 21.116,-66.37 55.507,-69.009 37.911,-2.91 67.549,27.11 65.26,64.509 C 107.492,1.551 79.421,29.326 39.756,24.003 20.607,21.434 8.208,11.645 0,0 m 39.756,44.256 c 28.641,3.299 50.32,-7.401 65.259,-21.753 7.671,-7.37 15.363,-16.768 20.253,-30.754 14.444,-41.32 -7.172,-86.502 -45.007,-102.014 -56.005,-22.962 -116.377,20.977 -111.765,81.761 1.416,18.671 8.721,31.299 12.752,37.505 10.966,16.887 30.716,32.054 58.508,35.255" /></g><g
           transform="translate(149.271,243.7842)"
           id="g80"><path
             id="path82"
             style="fill:#005e9e;fill-opacity:1;fill-rule:evenodd;stroke:none"
             d="m 0,0 c 39.665,5.323 67.736,-22.452 69.76,-55.508 2.289,-37.398 -27.349,-67.419 -65.26,-64.509 -34.391,2.64 -59.692,31.731 -55.507,69.01 1.861,16.584 7.452,21.613 11.251,27.004 C -31.548,-12.359 -19.148,-2.57 0,0" /></g><path
           id="path84"
           style="fill:#cb291c;fill-opacity:1;fill-rule:evenodd;stroke:none"
           d="m 763.607,226.532 h 13.502 V 214.53 h -13.502 z" /><g
           transform="translate(816.1138,226.5317)"
           id="g86"><path
             id="path88"
             style="fill:#cb291c;fill-opacity:1;fill-rule:evenodd;stroke:none"
             d="m 0,0 c 0.494,-22.259 -0.992,-46.499 0.75,-67.509 1.13,-3.621 6.457,-3.045 11.252,-3.001 v -13.502 c -40.191,-4.437 -21.051,50.46 -25.504,81.762 V 0 Z" /></g><g
           transform="translate(914.3774,226.5317)"
           id="g90"><path
             id="path92"
             style="fill:#cb291c;fill-opacity:1;fill-rule:evenodd;stroke:none"
             d="m 0,0 c -4.209,-18.463 6.858,-62.94 -3,-76.511 -7.06,-9.717 -46.569,-12.689 -57.008,-2.25 -9.189,9.189 -9.356,44.915 4.5,51.757 9.889,4.882 20.374,0.849 35.255,2.251 v -13.502 c -9.808,-0.694 -22.57,1.567 -30.004,-1.5 -2.744,-6.652 -1.637,-20.67 -0.75,-28.504 7.576,-4.272 25.313,-2.062 35.255,-1.501 5.589,18.665 -0.131,48.638 3,69.76 z" /></g><g
           transform="translate(333.7964,221.2808)"
           id="g94"><path
             id="path96"
             style="fill:#0a396a;fill-opacity:1;fill-rule:evenodd;stroke:none"
             d="M 0,0 V -78.761 H -13.501 V -2.25 C -13.025,2.524 -4.092,-1.158 0,0" /></g><g
           transform="translate(399.8057,221.2808)"
           id="g98"><path
             id="path100"
             style="fill:#0a396a;fill-opacity:1;fill-rule:evenodd;stroke:none"
             d="m 0,0 c 0.77,-2.303 -4.331,-6.581 -7.501,-9.751 -9.24,-9.241 -21.469,-19.197 -30.004,-29.254 10.777,-14.727 28.553,-26.453 38.255,-39.756 -19.187,-3.524 -24.893,6.89 -33.754,15.753 -6.12,6.119 -11.038,12.153 -16.503,16.502 h -9.751 v 13.502 h 8.251 c 12.689,9.814 22.441,22.565 34.505,33.004 z" /></g><g
           transform="translate(491.3188,221.2808)"
           id="g102"><path
             id="path104"
             style="fill:#0a396a;fill-opacity:1;fill-rule:evenodd;stroke:none"
             d="m 0,0 c 1.594,-3.157 0.363,-9.137 0.75,-13.501 h -30.004 c -12.119,-0.001 -37.177,0.725 -26.254,-15.753 5.756,-8.683 32.658,-1.352 45.757,-3.75 21.795,-3.991 22.522,-37.013 3.75,-44.256 -17.714,-6.835 -38.77,1.966 -64.509,-1.501 v 13.502 c 16.135,3.269 82.168,-10.624 60.759,18.003 C -40.34,-47.75 -81.005,-48.908 -69.76,-14.252 -62.935,6.783 -27.468,-1.741 0,0" /></g><g
           transform="translate(585.0815,207.7793)"
           id="g106"><path
             id="path108"
             style="fill:#cb291c;fill-opacity:1;fill-rule:evenodd;stroke:none"
             d="m 0,0 v -51.758 c 16.513,0.49 34.991,-0.986 50.257,0.75 7.017,24.787 -25.129,16.864 -44.256,18.003 0.49,4.261 -0.986,10.488 0.75,13.502 18.429,-0.41 43.272,-3.289 36.755,18.753 C 30.486,0.982 14.266,-0.487 0,0 m 53.258,-22.503 c 11.671,-7.01 17.703,-34.308 2.25,-41.256 -8.172,-3.675 -21.987,-1.501 -33.755,-1.501 -12.125,0 -24.302,-1.092 -33.755,1.501 -3.757,9.832 -2.25,24.831 -2.25,39.005 0,13.742 -2.407,29.357 3.751,37.505 15.695,0.077 58.353,4.937 66.009,-6.001 4.858,-6.939 3.521,-19.748 -2.25,-29.253" /></g><g
           transform="translate(628.5874,207.0288)"
           id="g110"><path
             id="path112"
             style="fill:#ffffff;fill-opacity:1;fill-rule:evenodd;stroke:none"
             d="m 0,0 c 6.518,-22.041 -18.326,-19.162 -36.755,-18.752 -1.736,-3.015 -0.26,-9.242 -0.75,-13.502 19.127,-1.139 51.274,6.784 44.256,-18.003 -15.266,-1.737 -33.744,-0.26 -50.257,-0.75 V 0.75 C -29.24,0.264 -13.02,1.732 0,0" /></g><g
           transform="translate(685.5952,201.7783)"
           id="g114"><path
             id="path116"
             style="fill:#cb291c;fill-opacity:1;fill-rule:evenodd;stroke:none"
             d="m 0,0 c 2.742,-16.389 -6.347,-39.461 6.751,-45.007 7.83,-3.314 19.01,0.901 30.755,-0.75 1.749,13.754 0.251,30.754 0.75,45.757 h 13.502 c -1.331,-18.671 2.768,-42.774 -2.25,-57.758 -20.136,-2.096 -45.159,-4.892 -56.259,6 -10.707,10.51 -5.523,29.123 -6.75,49.508 V 0 Z" /></g><path
           id="path118"
           style="fill:#cb291c;fill-opacity:1;fill-rule:evenodd;stroke:none"
           d="m 777.109,142.52 h -13.502 v 59.259 h 13.502 z" /><g
           transform="translate(950.3823,134.2686)"
           id="g120"><path
             id="path122"
             style="fill:#005e9e;fill-opacity:1;fill-rule:evenodd;stroke:none"
             d="m 0,0 c 5.202,-10.417 3.001,-26.985 3.001,-42.006 0,-15.182 1.15,-30.839 -1.5,-42.756 -214.666,-3.494 -435.785,-0.505 -653.342,-1.5 v 41.256 h 15.753 v -11.252 c 1.283,-1.717 5.725,-0.275 8.251,-0.75 v 12.002 h 7.501 v -18.753 c 1.284,-1.717 5.726,-0.275 8.251,-0.75 v 19.503 h 7.501 v -11.252 c 1.61,-1.389 5.495,-0.506 8.251,-0.75 1.558,2.693 0.389,8.112 0.75,12.002 h 7.501 v -18.753 c 1.284,-1.717 5.726,-0.275 8.251,-0.75 v 19.503 h 7.501 v -11.252 c 1.284,-1.717 5.726,-0.275 8.251,-0.75 v 12.002 h 7.502 v -18.753 c 1.284,-1.717 5.725,-0.275 8.251,-0.75 v 19.503 h 7.501 v -11.252 c 1.61,-1.389 5.494,-0.506 8.251,-0.75 1.558,2.693 0.389,8.112 0.75,12.002 h 7.501 v -18.753 c 1.284,-1.717 5.726,-0.275 8.251,-0.75 v 19.503 h 7.501 v -11.252 c 1.284,-1.717 5.726,-0.275 8.252,-0.75 v 12.002 h 7.501 v -18.753 c 1.283,-1.717 5.725,-0.275 8.251,-0.75 v 19.503 h 7.501 v -11.252 c 1.61,-1.389 5.494,-0.506 8.251,-0.75 1.558,2.693 0.389,8.112 0.75,12.002 h 6.751 v -18.753 c 1.529,-1.721 6.229,-0.271 9.001,-0.75 v 19.503 h 7.501 v -11.252 c 1.284,-1.717 5.726,-0.275 8.251,-0.75 v 12.002 h 7.501 v -18.753 c 1.285,-1.717 5.726,-0.275 8.251,-0.75 v 19.503 h 7.501 v -11.252 c 1.611,-1.389 5.495,-0.506 8.251,-0.75 1.559,2.693 0.39,8.112 0.751,12.002 h 6.75 v -18.753 c 1.285,-1.717 5.727,-0.275 8.252,-0.75 v 19.503 h 8.251 v -11.252 c 1.04,-1.71 5.221,-0.279 7.501,-0.75 v 12.002 h 7.501 v -18.753 c 1.53,-1.721 6.23,-0.271 9.001,-0.75 v 19.503 h 7.501 v -11.252 c 1.284,-1.717 5.726,-0.275 8.252,-0.75 v 12.002 h 7.501 v -18.753 c 1.283,-1.717 5.726,-0.275 8.251,-0.75 v 19.503 h 7.501 v -11.252 c 1.283,-1.717 5.726,-0.275 8.251,-0.75 v 12.002 h 7.501 v -18.753 c 1.529,-1.721 6.229,-0.271 9.001,-0.75 v 19.503 h 7.501 v -11.252 c 1.284,-1.717 5.727,-0.275 8.252,-0.75 v 12.002 h 7.501 v -18.753 c 1.283,-1.717 5.725,-0.275 8.251,-0.75 v 19.503 h 7.501 v -11.252 c 1.04,-1.71 5.221,-0.279 7.501,-0.75 1.557,2.693 0.389,8.112 0.75,12.002 h 7.501 v -18.753 c 1.284,-1.717 5.725,-0.275 8.251,-0.75 v 19.503 h 7.501 v -11.252 c 1.284,-1.717 5.726,-0.275 8.252,-0.75 v 12.002 h 7.501 v -18.753 c 1.528,-1.721 6.229,-0.271 9.001,-0.75 v 19.503 h 6.751 v -11.252 c 1.61,-1.389 5.494,-0.506 8.251,-0.75 1.557,2.693 0.389,8.112 0.75,12.002 h 7.501 v -18.753 c 1.284,-1.717 5.726,-0.275 8.252,-0.75 v 19.503 h 7.501 v -11.252 c 1.283,-1.717 5.725,-0.275 8.25,-0.75 v 12.002 h 7.501 v -18.753 c 1.285,-1.717 5.726,-0.275 8.251,-0.75 v 19.503 h 7.501 v -11.252 c 1.611,-1.389 5.496,-0.506 8.251,-0.75 v 12.002 h 8.251 v -18.753 c 1.285,-1.717 5.727,-0.275 8.252,-0.75 v 19.503 h 7.501 v -11.252 c 1.284,-1.717 5.726,-0.275 8.251,-0.75 v 12.002 h 7.501 v -18.753 c 1.284,-1.717 5.726,-0.275 8.251,-0.75 v 19.503 h 7.501 v -11.252 c 1.611,-1.389 5.495,-0.506 8.251,-0.75 v 12.002 h 7.501 v -18.753 c 1.529,-1.721 6.23,-0.271 9.002,-0.75 v 19.503 h 7.501 v -11.252 c 1.283,-1.717 5.726,-0.275 8.251,-0.75 v 12.002 h 13.502 c 1.748,9.754 0.252,22.751 0.75,33.755 -4.31,0.191 -9.562,-0.562 -12.752,0.75 C -30.559,1.569 -11.002,0.684 0,0" /></g></g></g></g></svg>